<?xml version="1.0" standalone="no"?>
<svg xmlns:xlink="http://www.w3.org/1999/xlink" id="wave" style="transform:rotate(0deg); transition: 0.3s" viewBox="0 0 1440 490" version="1.1" xmlns="http://www.w3.org/2000/svg"><defs><linearGradient id="sw-gradient-0" x1="0" x2="0" y1="1" y2="0"><stop stop-color="rgba(255, 255, 255, 1)" offset="0%"/><stop stop-color="rgba(234.865, 226.788, 208.933, 1)" offset="100%"/></linearGradient></defs><path style="transform:translate(0, 0px); opacity:1" fill="url(#sw-gradient-0)" d="M0,196L120,236.8C240,278,480,359,720,392C960,425,1200,408,1440,359.3C1680,310,1920,229,2160,179.7C2400,131,2640,114,2880,89.8C3120,65,3360,33,3600,65.3C3840,98,4080,196,4320,245C4560,294,4800,294,5040,261.3C5280,229,5520,163,5760,179.7C6000,196,6240,294,6480,277.7C6720,261,6960,131,7200,89.8C7440,49,7680,98,7920,106.2C8160,114,8400,82,8640,122.5C8880,163,9120,278,9360,310.3C9600,343,9840,294,10080,261.3C10320,229,10560,212,10800,228.7C11040,245,11280,294,11520,261.3C11760,229,12000,114,12240,73.5C12480,33,12720,65,12960,122.5C13200,180,13440,261,13680,277.7C13920,294,14160,245,14400,220.5C14640,196,14880,196,15120,163.3C15360,131,15600,65,15840,40.8C16080,16,16320,33,16560,89.8C16800,147,17040,245,17160,294L17280,343L17280,490L17160,490C17040,490,16800,490,16560,490C16320,490,16080,490,15840,490C15600,490,15360,490,15120,490C14880,490,14640,490,14400,490C14160,490,13920,490,13680,490C13440,490,13200,490,12960,490C12720,490,12480,490,12240,490C12000,490,11760,490,11520,490C11280,490,11040,490,10800,490C10560,490,10320,490,10080,490C9840,490,9600,490,9360,490C9120,490,8880,490,8640,490C8400,490,8160,490,7920,490C7680,490,7440,490,7200,490C6960,490,6720,490,6480,490C6240,490,6000,490,5760,490C5520,490,5280,490,5040,490C4800,490,4560,490,4320,490C4080,490,3840,490,3600,490C3360,490,3120,490,2880,490C2640,490,2400,490,2160,490C1920,490,1680,490,1440,490C1200,490,960,490,720,490C480,490,240,490,120,490L0,490Z"/><defs><linearGradient id="sw-gradient-1" x1="0" x2="0" y1="1" y2="0"><stop stop-color="rgba(239.418, 238.851, 238.668, 1)" offset="0%"/><stop stop-color="rgba(255, 255, 255, 1)" offset="100%"/></linearGradient></defs><path style="transform:translate(0, 50px); opacity:0.9" fill="url(#sw-gradient-1)" d="M0,0L120,65.3C240,131,480,261,720,318.5C960,376,1200,359,1440,367.5C1680,376,1920,408,2160,408.3C2400,408,2640,376,2880,351.2C3120,327,3360,310,3600,302.2C3840,294,4080,294,4320,269.5C4560,245,4800,196,5040,179.7C5280,163,5520,180,5760,220.5C6000,261,6240,327,6480,326.7C6720,327,6960,261,7200,228.7C7440,196,7680,196,7920,187.8C8160,180,8400,163,8640,171.5C8880,180,9120,212,9360,253.2C9600,294,9840,343,10080,375.7C10320,408,10560,425,10800,432.8C11040,441,11280,441,11520,367.5C11760,294,12000,147,12240,81.7C12480,16,12720,33,12960,98C13200,163,13440,278,13680,302.2C13920,327,14160,261,14400,253.2C14640,245,14880,294,15120,310.3C15360,327,15600,310,15840,253.2C16080,196,16320,98,16560,73.5C16800,49,17040,98,17160,122.5L17280,147L17280,490L17160,490C17040,490,16800,490,16560,490C16320,490,16080,490,15840,490C15600,490,15360,490,15120,490C14880,490,14640,490,14400,490C14160,490,13920,490,13680,490C13440,490,13200,490,12960,490C12720,490,12480,490,12240,490C12000,490,11760,490,11520,490C11280,490,11040,490,10800,490C10560,490,10320,490,10080,490C9840,490,9600,490,9360,490C9120,490,8880,490,8640,490C8400,490,8160,490,7920,490C7680,490,7440,490,7200,490C6960,490,6720,490,6480,490C6240,490,6000,490,5760,490C5520,490,5280,490,5040,490C4800,490,4560,490,4320,490C4080,490,3840,490,3600,490C3360,490,3120,490,2880,490C2640,490,2400,490,2160,490C1920,490,1680,490,1440,490C1200,490,960,490,720,490C480,490,240,490,120,490L0,490Z"/></svg>